<!DOCTYPE svg PUBLIC "-//W3C//DTD SVG 1.1//EN" "http://www.w3.org/Graphics/SVG/1.1/DTD/svg11.dtd">
<!-- Uploaded to: SVG Repo, www.svgrepo.com, Transformed by: SVG Repo Mixer Tools -->
<svg height="800px" width="800px" version="1.1" id="Capa_1" xmlns="http://www.w3.org/2000/svg" xmlns:xlink="http://www.w3.org/1999/xlink" viewBox="0 0 179.011 179.011" xml:space="preserve" fill="#000000">
<g id="SVGRepo_bgCarrier" stroke-width="0"/>
<g id="SVGRepo_tracerCarrier" stroke-linecap="round" stroke-linejoin="round"/>
<g id="SVGRepo_iconCarrier"> <g> <g> <g> <path style="fill:#47008f;" d="M82.675,15.168c-21.218-0.185-42.496,7.781-58.678,23.969c-31.994,31.994-31.994,83.888,0,115.877 c31.994,31.994,83.882,31.994,115.871,0.012c16.188-16.2,24.154-36.726,23.969-57.944H82.669L82.675,15.168L82.675,15.168z"/> </g> <g> <path style="fill:#47008f;" d="M179.01,87.707H92.037V0l2.918,0.03c22.388,0.209,43.409,9.028,59.209,24.81 c15.556,15.562,24.607,37.418,24.816,59.955L179.01,87.707z M97.819,81.925h75.308c-0.907-20.001-9.213-39.167-23.044-53.004 c-14.034-14.034-32.49-22.149-52.264-23.038C97.819,5.883,97.819,81.925,97.819,81.925z"/> </g> <g> <g> <path style="fill:#47008f;" d="M139.628,47.86c-1.444-1.002-4.213-2.071-8.264-3.204V31.881 c2.411,0.095,4.171,1.026,5.275,2.798c0.597,0.937,0.949,2.1,1.074,3.413h4.594c-0.089-2.948-1.056-5.34-2.93-7.154 c-1.85-1.802-4.523-2.816-8.002-3.079v-3.413h-2.482v3.485c-3.514,0.036-6.253,1.122-8.198,3.264 c-1.951,2.112-2.924,4.511-2.924,7.166c0,2.966,0.901,5.305,2.703,6.969c1.82,1.689,4.612,2.882,8.413,3.604v14.279 c-2.96-0.239-4.994-1.349-6.08-3.318c-0.621-1.11-0.996-2.858-1.122-5.251h-4.66c0,3.007,0.501,5.388,1.504,7.16 c1.814,3.27,5.281,5.066,10.358,5.394v5.096h2.482v-5.096c3.174-0.37,5.597-1.074,7.262-2.142 c3.043-1.957,4.553-5.269,4.553-9.911C143.179,51.936,141.985,49.483,139.628,47.86z M128.894,44.155 c-1.963-0.382-3.514-1.074-4.672-2.041c-1.146-0.979-1.724-2.345-1.724-4.075c0-1.432,0.489-2.804,1.462-4.117 c0.979-1.307,2.613-2.005,4.935-2.094C128.894,31.827,128.894,44.155,128.894,44.155z M137.57,60.074 c-1.146,2.047-3.198,3.121-6.2,3.27V49.549c2.19,0.597,3.741,1.217,4.666,1.886c1.611,1.128,2.411,2.798,2.411,4.988 C138.447,57.801,138.155,59.012,137.57,60.074z"/> </g> </g> </g> </g> </g>
</svg>