<!DOCTYPE svg PUBLIC "-//W3C//DTD SVG 1.1//EN" "http://www.w3.org/Graphics/SVG/1.1/DTD/svg11.dtd">
<!-- Uploaded to: SVG Repo, www.svgrepo.com, Transformed by: SVG Repo Mixer Tools -->
<svg fill="#ffffff" version="1.1" id="Capa_1" xmlns="http://www.w3.org/2000/svg" xmlns:xlink="http://www.w3.org/1999/xlink" width="800px" height="800px" viewBox="0 0 424.449 424.449" xml:space="preserve" stroke="#ffffff">
<g id="SVGRepo_bgCarrier" stroke-width="0"/>
<g id="SVGRepo_tracerCarrier" stroke-linecap="round" stroke-linejoin="round"/>
<g id="SVGRepo_iconCarrier"> <g> <path d="M212.225,0C95.204,0,0,95.204,0,212.225c0,117.021,95.204,212.225,212.225,212.225s212.224-95.203,212.224-212.225 C424.449,95.204,329.246,0,212.225,0z M201.225,22.327v49.325c-13.445,1.042-26.364,3.985-38.497,8.549l-24.619-43.165 C157.695,28.718,178.954,23.602,201.225,22.327z M81.941,158.353l-47.886-12.77c7.735-20.613,18.959-39.529,32.936-56.047 l36.362,33.219C94.566,133.428,87.314,145.404,81.941,158.353z M28.044,164.679l47.571,12.686 c-2.398,9.395-3.867,19.158-4.266,29.194H22.092 M64.526,331.956c-23.348-28.747-38.485-64.412-41.817-103.397h49.467 c2.992,25.812,12.98,49.521,28.018,69.176L64.526,331.956z M212.225,331.225c-65.617,0-119-53.383-119-119 c0-65.617,53.383-119,119-119c65.617,0,119,53.383,119,119C331.225,277.842,277.842,331.225,212.225,331.225z"/> </g> </g>
</svg>